<svg
  xmlns="http://www.w3.org/2000/svg"
  style="display: none"
>
  <symbol
    id="icon-arrow-left"
    viewBox="0 0 24 24"
  >
    <path d="M10 22L0 12L10 2l1.775 1.775L3.55 12l8.225 8.225z"></path>
  </symbol>
  <symbol
    id="icon-arrow-right"
    viewBox="0 0 24 24"
  >
    <path d="M8.025 22L6.25 20.225L14.475 12L6.25 3.775L8.025 2l10 10z"></path>
  </symbol>
  <symbol
    viewBox="0 0 256 256"
    id="icon-arrow-down"
  >
    <path
      d="m213.66 101.66l-80 80a8 8 0 0 1-11.32 0l-80-80a8 8 0 0 1 11.32-11.32L128 164.69l74.34-74.35a8 8 0 0 1 11.32 11.32"
    ></path>
  </symbol>
  <symbol
    viewBox="0 0 24 24"
    id="icon-eye"
  >
    <path
      d="M12 9a3 3 0 0 1 3 3a3 3 0 0 1-3 3a3 3 0 0 1-3-3a3 3 0 0 1 3-3m0-4.5c5 0 9.27 3.11 11 7.5c-1.73 4.39-6 7.5-11 7.5S2.73 16.39 1 12c1.73-4.39 6-7.5 11-7.5M3.18 12a9.821 9.821 0 0 0 17.64 0a9.821 9.821 0 0 0-17.64 0"
    ></path>
  </symbol>
  <symbol
    id="icon-heart"
    viewBox="0 0 24 24"
  >
    <path
      d="m12 19.654l-.758-.685q-2.448-2.236-4.05-3.828q-1.601-1.593-2.528-2.81t-1.296-2.2T3 8.15q0-1.908 1.296-3.204T7.5 3.65q1.32 0 2.475.675T12 6.289Q12.87 5 14.025 4.325T16.5 3.65q1.908 0 3.204 1.296T21 8.15q0 .996-.368 1.98q-.369.986-1.296 2.202t-2.519 2.809q-1.592 1.592-4.06 3.828zm0-1.354q2.4-2.17 3.95-3.716t2.45-2.685t1.25-2.015Q20 9.006 20 8.15q0-1.5-1-2.5t-2.5-1q-1.194 0-2.204.682T12.49 7.385h-.978q-.817-1.39-1.817-2.063q-1-.672-2.194-.672q-1.48 0-2.49 1T4 8.15q0 .856.35 1.734t1.25 2.015t2.45 2.675T12 18.3m0-6.825"
    ></path>
  </symbol>
  <symbol
    id="icon-plus"
    viewBox="0 0 24 24"
  >
    <path d="M19 13h-6v6h-2v-6H5v-2h6V5h2v6h6z"></path>
  </symbol>
  <symbol
    viewBox="0 0 24 24"
    id="icon-cross"
  >
    <path
      d="m12 10.587l4.95-4.95l1.414 1.414l-4.95 4.95l4.95 4.95l-1.415 1.414l-4.95-4.95l-4.949 4.95l-1.414-1.415l4.95-4.95l-4.95-4.95L7.05 5.638z"
    ></path>
  </symbol>
  <symbol
    viewBox="0 0 24 24"
    id="icon-edit"
  >
    <path
      d="M3 21v-4.25L16.2 3.575q.3-.275.663-.425t.762-.15t.775.15t.65.45L20.425 5q.3.275.438.65T21 6.4q0 .4-.137.763t-.438.662L7.25 21zM17.6 7.8L19 6.4L17.6 5l-1.4 1.4z"
    ></path>
  </symbol>
  <symbol
    viewBox="0 0 24 24"
    id="icon-spinner"
  >
    <g>
      <circle
        cx="12"
        cy="2.5"
        r="1.5"
        fill="currentColor"
        opacity=".14"
      ></circle>
      <circle
        cx="16.75"
        cy="3.77"
        r="1.5"
        fill="currentColor"
        opacity=".29"
      ></circle>
      <circle
        cx="20.23"
        cy="7.25"
        r="1.5"
        fill="currentColor"
        opacity=".43"
      ></circle>
      <circle
        cx="21.5"
        cy="12"
        r="1.5"
        fill="currentColor"
        opacity=".57"
      ></circle>
      <circle
        cx="20.23"
        cy="16.75"
        r="1.5"
        fill="currentColor"
        opacity=".71"
      ></circle>
      <circle
        cx="16.75"
        cy="20.23"
        r="1.5"
        fill="currentColor"
        opacity=".86"
      ></circle>
      <circle
        cx="12"
        cy="21.5"
        r="1.5"
        fill="currentColor"
      ></circle>
      <animateTransform
        attributeName="transform"
        calcMode="discrete"
        dur="0.75s"
        repeatCount="indefinite"
        type="rotate"
        values="0 12 12;30 12 12;60 12 12;90 12 12;120 12 12;150 12 12;180 12 12;210 12 12;240 12 12;270 12 12;300 12 12;330 12 12;360 12 12"
      ></animateTransform>
    </g>
  </symbol>
</svg>
